<?xml version="1.0" encoding="utf-8"?>
<svg version="1.1" id="Layer_1" xmlns="http://www.w3.org/2000/svg" xmlns:xlink="http://www.w3.org/1999/xlink" x="0px" y="0px"
	 width="50px" height="50px" viewBox="0 0 50 50"  xml:space="preserve">
<path opacity="0.85" fill="#FFFFFF"   d="M25,3.846c11.682,0,21.156,9.472,21.156,21.154
	S36.682,46.156,25,46.156C13.316,46.156,3.846,36.683,3.846,25S13.316,3.846,25,3.846 M25,0C11.217,0,0,11.215,0,25s11.217,25,25,25
	c13.784,0,25-11.215,25-25S38.783,0,25,0z"/>
<path fill="#FFFFFF" d="M26.211,27.485l-2.7,0.632l-0.305-4.162l0.851-0.271c2.702-0.798,3.629-1.616,3.629-2.933
	c0-1.12-0.82-1.807-2.321-1.807c-1.716,0-3.574,0.823-5.157,1.945l-0.574-3.832c1.609-1.095,3.629-1.916,6.333-1.916
	c3.848,0,6.083,1.946,6.083,5.253c0,3.176-1.989,4.988-5.757,6.192L26.211,27.485z M22.223,37.067v-5.572h5.555v5.572H22.223z"/>
</svg>
