<?xml version="1.0" encoding="utf-8"?>
<!-- Generator: Adobe Illustrator 15.1.0, SVG Export Plug-In . SVG Version: 6.00 Build 0)  -->
<!DOCTYPE svg PUBLIC "-//W3C//DTD SVG 1.1//EN" "http://www.w3.org/Graphics/SVG/1.1/DTD/svg11.dtd">
<svg version="1.1" id="Layer_1" xmlns="http://www.w3.org/2000/svg" xmlns:xlink="http://www.w3.org/1999/xlink" x="0px" y="0px"
	 width="50px" height="50px" viewBox="0 0 50 50"   xml:space="preserve">
<path fill="#FFFFFF" d="M45.943,23.195c-0.002,0-0.004,0-0.004-0.004c-0.002,0-0.002-0.004-0.004-0.004L26.674,4.139
	c-0.793-0.781-2.061-0.773-2.836,0.016c-0.783,0.787-0.775,2.055,0.016,2.836l17.832,17.631L24.045,42.246c0,0-1.346,1.492,0,2.836
	c1.348,1.344,2.836,0,2.836,0l19.066-19.051c0,0,0-0.004,0.004-0.004c0,0,0,0,0.004-0.004c0,0,0.58-0.645,0.58-1.414
	C46.535,23.842,45.943,23.195,45.943,23.195z"/>
</svg>
